<?xml version="1.0" standalone="no"?>
<!DOCTYPE svg PUBLIC "-//W3C//DTD SVG 20010904//EN"
 "http://www.w3.org/TR/2001/REC-SVG-20010904/DTD/svg10.dtd">
<svg version="1.0" xmlns="http://www.w3.org/2000/svg"
 width="4500.000000pt" height="5600.000000pt" viewBox="0 0 4500.000000 5600.000000"
 preserveAspectRatio="xMidYMid meet">

<g transform="translate(0.000000,5600.000000) scale(0.100000,-0.100000)"
fill="#000000" stroke="none">
<path d="M25833 55579 c-125 -32 -254 -98 -301 -155 -34 -42 -94 -118 -129
-166 -16 -20 -40 -52 -54 -70 -25 -32 -79 -186 -79 -226 0 -11 -7 -36 -15 -55
-11 -28 -15 -79 -15 -221 0 -104 -5 -197 -10 -212 -6 -15 -13 -64 -17 -108 -3
-45 -11 -100 -19 -124 -8 -23 -14 -68 -14 -100 0 -31 -7 -75 -15 -97 -11 -31
-14 -99 -15 -293 0 -183 -3 -259 -12 -275 -8 -14 -15 -90 -19 -212 -3 -104
-11 -208 -17 -230 -18 -64 -15 -818 3 -870 8 -22 15 -54 15 -71 0 -17 7 -51
15 -74 13 -36 15 -136 15 -652 0 -449 -3 -615 -12 -631 -20 -38 -23 -229 -4
-286 13 -41 16 -100 16 -351 l0 -302 -37 7 c-21 4 -41 9 -45 11 -4 2 -6 38 -6
79 0 131 -24 589 -33 626 -5 20 -21 54 -35 75 -19 28 -28 56 -32 101 -3 36
-13 77 -26 99 -16 28 -301 255 -1171 931 -632 492 -1166 901 -1185 910 -76 33
-188 2 -235 -66 -9 -14 -578 -447 -1264 -961 -1018 -764 -1250 -942 -1268
-975 -31 -55 -31 -128 0 -186 l24 -44 -27 -218 c-20 -160 -25 -228 -19 -258 5
-22 7 -44 4 -48 -2 -5 -31 -24 -62 -43 -32 -19 -182 -114 -333 -209 -151 -96
-417 -264 -590 -373 -173 -110 -326 -208 -338 -220 -13 -12 -33 -38 -43 -59
-28 -55 -26 -225 10 -781 27 -418 28 -463 14 -490 -22 -42 -14 -134 16 -178
13 -18 41 -46 62 -61 21 -15 95 -93 165 -173 l126 -145 -7 -467 c-4 -257 -9
-469 -10 -472 -2 -3 -5 -126 -6 -273 l-2 -266 -26 -5 c-14 -3 -64 -12 -111
-20 -730 -130 -1103 -198 -1124 -206 -43 -16 -169 -151 -521 -559 -187 -217
-403 -467 -480 -556 -77 -89 -306 -354 -510 -590 -203 -235 -452 -523 -553
-639 -100 -116 -189 -225 -197 -243 -19 -39 -19 -113 -1 -156 7 -18 39 -57 70
-87 31 -30 66 -73 77 -95 11 -22 60 -78 109 -125 l90 -85 10 -150 c5 -82 22
-316 36 -520 l25 -370 -8 -970 c-10 -1228 -12 -1102 21 -1159 15 -25 30 -46
34 -46 4 0 15 -7 26 -15 17 -13 12 -23 -80 -177 -61 -101 -147 -225 -229 -328
-72 -91 -300 -376 -506 -635 -459 -575 -417 -520 -430 -568 -14 -53 4 -129 42
-171 l28 -32 -1635 -207 c-1850 -233 -1688 -204 -1757 -315 -59 -94 -59 -109
13 -413 34 -145 69 -279 78 -298 8 -18 34 -45 56 -60 22 -14 56 -42 75 -62 58
-58 80 -67 230 -98 78 -15 143 -30 145 -32 1 -2 51 -71 111 -154 59 -82 118
-161 129 -173 29 -33 72 -54 126 -63 25 -4 64 -13 87 -20 42 -13 75 -11 290
18 l42 6 5 -449 c7 -650 6 -751 -4 -1359 -5 -302 -12 -692 -15 -865 -3 -173
-7 -432 -10 -575 -5 -272 -11 -631 -20 -1145 -3 -168 -7 -424 -10 -570 -6
-302 -13 -707 -20 -1150 -3 -168 -7 -424 -10 -570 -3 -146 -7 -402 -10 -570
-5 -303 -11 -624 -20 -1150 -3 -151 -7 -410 -10 -575 -12 -702 -15 -894 -20
-1145 -3 -146 -7 -402 -10 -570 -6 -378 -14 -800 -20 -1160 -3 -151 -7 -408
-10 -570 -12 -676 -15 -870 -20 -1150 -3 -162 -21 -1199 -40 -2305 -19 -1105
-37 -2138 -40 -2295 -3 -157 -10 -544 -15 -860 -5 -316 -12 -703 -15 -860 -3
-157 -10 -541 -15 -855 -10 -611 -17 -1017 -25 -1455 -3 -151 -7 -396 -10
-545 -3 -148 -7 -418 -10 -600 -3 -181 -7 -436 -10 -565 -3 -129 -7 -388 -10
-575 -3 -187 -7 -443 -10 -570 -3 -126 -7 -387 -10 -580 -3 -192 -7 -444 -10
-560 -3 -115 -7 -385 -10 -600 -3 -214 -7 -462 -10 -550 -3 -88 -7 -351 -10
-585 -3 -234 -7 -492 -10 -575 -3 -82 -7 -346 -10 -585 -3 -239 -7 -489 -10
-555 -3 -66 -7 -334 -10 -595 -3 -261 -8 -511 -10 -555 -2 -44 -8 -318 -12
-610 -3 -291 -7 -534 -8 -540 -1 -5 -3 -86 -4 -180 l-2 -170 -50 -24 c-73 -34
-104 -85 -104 -171 0 -56 4 -73 28 -108 29 -45 80 -76 142 -88 22 -4 60 -18
84 -31 47 -25 111 -30 157 -13 21 9 1519 -178 7048 -876 l7021 -887 38 -39
c45 -47 91 -68 152 -68 50 0 44 -2 725 287 566 241 1079 459 1855 788 347 147
824 350 1060 450 394 168 927 394 1728 734 l307 130 45 -31 c95 -67 218 -43
279 56 l29 47 -1 227 c-1 125 -4 277 -7 337 -3 61 -7 247 -10 415 -3 168 -8
397 -10 510 -3 113 -14 624 -25 1135 -11 512 -22 1038 -25 1170 -3 132 -7 337
-10 455 -3 118 -7 323 -10 455 -3 132 -21 967 -40 1855 -19 888 -37 1725 -40
1860 -9 424 -15 667 -20 915 -3 132 -19 863 -35 1625 -16 762 -32 1491 -35
1620 -8 355 -14 638 -20 915 -5 241 -9 403 -20 920 -3 132 -17 760 -30 1395
-13 635 -27 1260 -30 1388 -3 127 -7 337 -10 465 -3 127 -21 959 -40 1847 -19
888 -37 1725 -40 1860 -3 135 -7 342 -10 460 -3 118 -7 323 -10 455 -3 132
-19 863 -35 1625 -27 1302 -33 1563 -45 2070 -3 113 -7 324 -10 470 -3 146 -7
353 -10 460 -3 107 -7 312 -10 455 -3 143 -15 663 -25 1155 -11 492 -20 943
-20 1001 l0 106 178 139 c97 76 192 154 209 173 l33 34 317 -22 c614 -43 590
-45 671 44 43 46 53 66 71 137 12 46 35 113 51 149 19 40 30 83 30 110 0 24 9
77 20 118 16 60 18 82 9 119 -18 80 -78 136 -169 156 -14 4 -135 95 -270 203
-135 108 -786 630 -1448 1160 -662 530 -1411 1138 -1665 1350 -254 212 -558
465 -674 562 -139 115 -211 181 -208 191 2 8 10 33 18 55 12 33 16 168 21 770
4 402 9 782 11 845 2 63 7 428 10 810 3 382 7 751 10 820 3 69 7 445 11 835 3
391 7 758 9 818 l3 107 34 28 c105 83 342 310 359 343 25 50 25 124 -1 174
-11 22 -20 59 -20 83 0 24 -7 58 -15 75 -8 18 -449 466 -979 996 l-963 963 13
46 c21 68 20 583 -1 642 -13 36 -15 135 -15 634 -1 489 -3 598 -15 631 -8 22
-15 63 -15 90 0 28 -5 68 -12 90 -6 22 -14 157 -18 300 -4 160 -11 271 -18
288 -9 20 -12 156 -12 473 0 373 -2 450 -15 481 -10 23 -15 68 -15 128 0 53
-6 113 -15 141 -8 27 -15 78 -15 114 -1 36 -7 83 -15 105 -8 22 -15 72 -15
110 0 39 -7 97 -15 128 -8 32 -15 97 -15 145 -1 49 -7 104 -15 127 -12 32 -15
119 -15 456 0 339 -3 425 -15 465 -8 27 -15 76 -15 110 0 33 -6 83 -14 110 -8
27 -17 67 -21 89 -4 22 -13 51 -20 65 -29 53 -65 233 -66 325 0 52 -6 107 -14
130 -8 22 -15 63 -15 92 0 29 -6 72 -14 95 -8 24 -18 66 -21 93 -4 28 -17 75
-30 105 -26 61 -63 184 -109 365 -9 33 -27 101 -41 152 -14 51 -25 109 -25
131 0 21 -7 61 -15 88 -8 27 -15 81 -15 120 0 39 -7 93 -15 120 -8 27 -15 69
-15 94 -1 25 -7 63 -15 85 -8 22 -15 67 -15 100 -1 33 -7 78 -15 100 -12 31
-15 103 -15 331 0 229 -3 301 -15 340 -8 27 -15 67 -15 90 0 22 -7 63 -15 90
-12 39 -15 120 -15 409 0 224 -5 375 -11 400 -6 22 -15 80 -19 128 -15 157
-69 280 -167 383 -40 42 -69 64 -93 69 -19 4 -48 14 -65 21 -85 37 -173 52
-325 57 -146 4 -162 3 -267 -24z m-2153 -4684 l125 -54 6 -148 c4 -81 7 -241
8 -354 l1 -207 -282 71 c-156 38 -286 73 -289 76 -4 3 -10 153 -14 333 l-7
327 159 4 c87 1 160 4 163 5 3 1 61 -23 130 -53z m-586 -77 c3 -68 8 -209 10
-314 l5 -191 -137 34 c-213 54 -257 62 -297 53 -29 -7 -35 -5 -35 9 0 9 7 126
15 261 8 135 15 248 15 252 0 4 57 9 128 10 70 2 164 4 208 6 l82 3 6 -123z
m-564 75 c0 -55 -20 -409 -26 -470 -5 -52 -6 -53 -37 -53 -18 0 -198 -23 -402
-50 -203 -28 -378 -50 -389 -50 -19 0 -19 8 -13 316 4 175 9 320 13 323 3 3
146 8 317 11 172 3 363 6 425 8 l112 3 0 -38z m-1000 -308 l0 -335 -22 -5
c-37 -8 -560 -76 -562 -73 -4 7 29 497 34 502 3 2 71 34 150 69 80 36 199 90
265 120 66 30 123 56 128 56 4 1 7 -150 7 -334z m2843 6 c4 -5 12 -104 17
-222 5 -118 12 -253 15 -300 l6 -87 -228 57 -228 57 -3 341 -2 341 207 -90
c115 -50 212 -93 216 -97z m-3552 -208 c-7 -126 -14 -229 -15 -230 -4 -4 -609
-84 -612 -80 -6 5 27 251 34 259 6 6 589 274 602 277 3 1 -1 -101 -9 -226z
m3818 91 c5 -5 29 -409 30 -513 l1 -43 -37 7 c-21 3 -49 12 -63 18 l-25 12
-12 250 c-6 138 -12 267 -12 287 l-1 38 57 -25 c31 -14 59 -28 62 -31z m-1754
-510 c121 -31 223 -59 227 -62 6 -7 28 -754 22 -761 -1 -1 -58 10 -126 25
-117 27 -125 30 -166 72 -56 57 -120 85 -199 86 -35 1 -63 5 -63 11 0 6 9 161
20 345 11 184 20 339 20 344 0 4 10 6 23 2 12 -3 121 -31 242 -62z m-405 -1
c-1 -54 -39 -665 -42 -668 -19 -16 -816 -170 -827 -160 -2 3 1 5 7 5 26 0 31
52 38 381 4 189 8 345 9 347 1 2 766 108 803 111 6 1 12 -7 12 -16z m1073
-169 l264 -66 6 -371 c3 -204 5 -373 3 -374 -3 -3 -436 94 -526 117 l-35 10
-4 381 c-3 344 -2 381 12 376 9 -3 135 -36 280 -73z m-2033 -284 c0 -327 1
-341 20 -360 11 -11 26 -20 33 -21 13 -1 -722 -119 -738 -118 -5 0 -4 3 3 6 7
2 17 14 23 25 6 12 21 178 34 370 13 192 25 351 28 354 4 4 536 80 580 83 16
1 17 -21 17 -339z m-743 168 c-18 -215 -39 -600 -33 -621 3 -15 18 -31 36 -38
27 -12 -17 -21 -493 -95 -287 -45 -535 -85 -551 -89 -16 -5 -81 -53 -145 -108
-112 -96 -116 -99 -119 -73 -2 15 4 143 12 284 9 141 16 264 16 273 0 13 246
178 378 254 12 6 13 -38 7 -263 l-8 -270 26 -26 c33 -33 61 -33 92 -1 l25 24
0 314 0 314 93 58 92 59 265 37 c146 20 276 37 289 38 23 1 24 0 18 -71z
m3418 -46 l230 -59 12 -289 c7 -159 16 -325 21 -369 5 -44 8 -81 8 -82 -1 0
-113 25 -251 57 l-250 57 -3 372 c-1 204 -1 371 0 371 2 0 107 -26 233 -58z
m565 -143 c91 -23 169 -45 173 -49 8 -7 49 -711 42 -719 -3 -2 -99 18 -215 44
-207 47 -210 48 -190 67 16 15 20 31 20 80 0 59 -16 442 -24 566 -3 54 -2 62
13 58 9 -3 90 -24 181 -47z m387 -99 c2 0 3 -57 3 -126 0 -81 -4 -133 -12
-147 -8 -14 -14 -90 -18 -217 l-5 -195 -13 265 c-7 146 -15 304 -19 352 l-6
87 34 -9 c19 -6 35 -10 36 -10z m-5803 -538 c-15 -252 -16 -283 -2 -304 15
-23 11 -26 -241 -247 l-256 -224 -6 49 c-4 27 -15 186 -25 353 -15 261 -15
305 -3 312 8 4 133 84 279 177 146 93 266 168 268 167 1 -1 -5 -128 -14 -283z
m4144 -1030 c120 -314 143 -388 113 -356 -11 11 -271 688 -271 704 0 47 41
-43 158 -348z m-1298 328 c0 -17 -501 -560 -511 -554 -6 3 -5 12 3 22 43 55
492 542 499 542 5 0 9 -4 9 -10z m-1273 -346 c164 -135 298 -250 298 -255 0
-5 -4 -10 -8 -10 -12 -2 -607 490 -607 502 0 5 4 9 9 9 6 0 144 -111 308 -246z
m3842 -48 c-8 -7 -808 -316 -819 -316 -7 0 -10 5 -8 11 6 18 811 329 822 318
5 -5 8 -10 5 -13z m-3391 -680 c-4 -17 -654 -616 -668 -616 -6 0 -10 4 -10 9
0 11 661 621 673 621 5 0 7 -6 5 -14z m681 -201 c206 -143 242 -172 219 -178
-14 -4 -508 346 -508 360 0 19 -10 25 289 -182z m1609 97 c-37 -48 -352 -382
-359 -382 -5 0 -9 5 -9 10 0 17 361 400 371 394 6 -3 5 -12 -3 -22z m671 -358
c243 -168 441 -310 441 -315 0 -5 -6 -9 -12 -9 -18 1 -881 604 -886 618 -2 7
1 12 7 12 5 0 208 -138 450 -306z"/>
<path d="M11100 28590 c-162 -19 -300 -78 -387 -166 -30 -30 -57 -54 -60 -54
-3 0 -30 22 -59 50 -68 61 -189 123 -291 147 -98 23 -378 25 -463 4 -136 -33
-229 -102 -273 -199 -22 -52 -32 -168 -41 -494 l-5 -198 59 0 c38 0 62 5 67
13 4 8 23 24 41 38 l34 24 936 -3 c561 -1 959 -6 992 -12 43 -8 62 -17 88 -45
29 -32 37 -35 86 -35 l53 0 7 288 c6 246 5 296 -9 347 -25 93 -74 154 -168
209 -120 70 -402 110 -607 86z m291 -250 c156 -18 247 -62 280 -134 19 -41 25
-137 13 -184 l-6 -22 -457 2 -456 3 3 85 c5 100 24 145 79 182 97 67 317 94
544 68z m-1016 -23 c63 -18 125 -49 148 -75 38 -42 58 -145 41 -209 l-6 -23
-408 0 -408 0 -7 41 c-9 52 2 124 26 171 23 45 82 82 164 103 77 19 375 14
450 -8z"/>
<path d="M9517 27458 c-4 -46 -7 -127 -7 -180 l0 -98 53 0 c45 0 57 4 76 26
52 60 28 58 811 55 393 -1 774 -6 846 -11 212 -15 319 -48 368 -113 28 -38 29
-115 1 -154 -28 -38 -115 -80 -205 -99 -105 -21 -537 -27 -1205 -17 -588 10
-576 8 -623 68 -17 21 -28 25 -76 25 l-56 0 0 -73 c0 -41 -3 -135 -6 -209 l-7
-135 53 -7 c50 -7 53 -6 86 28 57 59 67 60 829 53 429 -4 733 -3 822 3 309 23
511 112 573 253 45 100 44 241 0 327 -39 76 -134 143 -255 180 -152 46 -215
50 -910 60 -948 13 -954 13 -992 33 -18 10 -40 29 -49 42 -14 21 -24 25 -69
25 l-52 0 -6 -82z"/>
<path d="M11145 26366 c-4 -26 -5 -50 -1 -53 3 -3 65 -14 138 -24 207 -29 317
-70 338 -125 6 -14 10 -66 10 -116 l0 -91 -940 7 c-627 4 -958 10 -993 18 -37
8 -61 20 -84 44 -28 30 -38 34 -81 34 -48 0 -50 -1 -56 -32 -3 -18 -6 -114 -7
-213 l-2 -180 48 -3 c41 -3 52 1 79 26 17 16 42 36 56 43 34 19 365 22 1245
11 762 -9 747 -8 792 -66 18 -22 28 -26 76 -26 l54 0 7 223 c3 122 9 295 12
383 l7 161 -74 6 c-41 4 -196 10 -346 13 l-271 7 -7 -47z"/>
<path d="M9475 25408 c-40 -85 -58 -196 -45 -274 35 -211 280 -355 725 -426
166 -26 694 -37 898 -18 426 39 661 138 744 315 26 55 28 69 27 175 0 105 -3
123 -33 203 l-33 87 -262 -2 -261 -3 -3 -50 -3 -51 111 -17 c136 -22 215 -50
258 -93 27 -27 32 -39 32 -78 0 -81 -48 -125 -182 -170 -300 -100 -1177 -102
-1563 -5 -200 51 -299 145 -250 238 29 58 125 98 288 121 l87 12 0 54 0 54
-250 0 -251 0 -34 -72z"/>
<path d="M9794 24139 c-190 -24 -315 -104 -359 -227 -18 -49 -33 -306 -34
-559 l-1 -123 54 0 c45 0 56 4 69 24 23 35 73 53 162 60 143 11 1826 -10 1867
-23 20 -6 48 -25 62 -41 22 -27 31 -30 79 -30 l55 0 7 163 c4 89 5 234 4 322
-4 155 -5 162 -33 213 -56 100 -155 165 -314 204 -75 19 -115 22 -287 23 -180
0 -208 -2 -280 -23 -110 -32 -190 -77 -258 -144 l-59 -58 -61 56 c-150 135
-409 198 -673 163z m444 -264 c86 -20 160 -66 184 -115 13 -25 18 -59 18 -117
l0 -83 -167 0 c-93 0 -279 3 -415 7 l-248 6 0 76 c1 150 62 212 240 241 80 13
303 4 388 -15z m1095 11 c93 -18 168 -55 199 -98 20 -29 23 -44 23 -133 0 -74
-3 -100 -12 -99 -7 1 -213 2 -458 3 l-445 1 0 73 c1 75 17 136 44 166 28 31
113 72 179 86 86 19 374 19 470 1z"/>
<path d="M9390 22983 c0 -60 -3 -138 -7 -175 l-6 -68 61 0 c51 0 63 3 72 20 6
11 25 28 43 37 30 17 85 18 807 17 814 0 927 -5 1056 -45 40 -12 80 -33 101
-53 31 -28 37 -40 40 -87 6 -75 -18 -111 -98 -149 -115 -54 -134 -55 -1009
-55 -879 0 -883 0 -936 56 -24 25 -35 29 -80 29 -52 0 -53 -1 -58 -32 -3 -18
-7 -113 -8 -211 l-3 -177 53 0 c46 0 57 4 86 34 20 20 50 37 73 41 21 5 371 7
778 6 788 -3 881 1 1053 44 164 42 270 115 320 223 24 50 27 69 27 157 -1 84
-4 108 -24 147 -60 123 -207 198 -455 234 -90 13 -255 17 -881 23 -756 7 -771
7 -817 28 -25 12 -51 31 -57 42 -10 18 -21 21 -71 21 l-60 0 0 -107z"/>
<path d="M10240 21924 c-332 -29 -524 -77 -662 -166 -115 -73 -172 -142 -208
-248 -18 -54 -23 -101 -30 -300 -5 -129 -9 -245 -10 -257 0 -21 4 -23 60 -23
49 0 61 3 70 20 6 11 25 28 43 37 30 17 91 18 971 16 637 -2 956 -6 992 -13
40 -9 60 -20 83 -46 27 -30 36 -34 80 -34 27 0 52 4 55 8 3 5 6 118 7 253 2
209 0 253 -15 304 -69 235 -325 375 -786 431 -119 14 -554 26 -650 18z m690
-274 c300 -35 471 -100 534 -204 26 -41 30 -58 30 -117 0 -37 -3 -71 -6 -75
-4 -3 -443 -2 -977 2 l-971 7 0 52 c0 192 214 306 648 345 125 11 619 5 742
-10z"/>
<path d="M11549 20439 c-6 -11 -34 -32 -62 -45 -62 -27 -79 -30 -1292 -190
-520 -68 -893 -121 -897 -128 -8 -11 -11 -206 -4 -206 21 0 1981 -365 2045
-380 98 -24 151 -50 179 -85 16 -21 28 -25 69 -25 l50 0 6 83 c4 45 7 124 7
175 l0 92 -53 0 c-47 0 -55 -3 -64 -23 -20 -44 -74 -59 -197 -58 -99 0 -399
40 -413 55 -3 2 -2 81 2 175 l8 170 26 5 c85 17 335 37 427 34 l106 -3 33 -37
c29 -34 37 -38 82 -38 l50 0 6 143 c4 78 7 179 7 225 l0 82 -55 0 c-45 0 -56
-4 -66 -21z m-820 -506 c-1 -54 -4 -121 -7 -149 l-7 -51 -474 83 c-260 46
-475 85 -477 87 -3 2 882 120 954 126 9 1 12 -24 11 -96z"/>
<path d="M9286 19299 c-3 -17 -6 -87 -6 -155 l0 -124 55 0 c47 0 57 3 70 24 9
13 35 32 58 42 39 17 95 18 755 18 391 1 712 -2 712 -5 0 -4 -53 -19 -117 -34
-276 -63 -1529 -388 -1540 -399 -3 -2 -7 -77 -10 -165 l-6 -161 55 0 c46 0 58
4 79 26 55 61 14 58 949 56 1070 -3 1079 -3 1135 -62 25 -26 36 -30 80 -30
l52 0 6 68 c4 37 7 104 7 150 l0 82 -54 0 c-48 0 -58 -4 -88 -34 -25 -25 -46
-36 -79 -41 -24 -3 -384 -5 -799 -3 l-755 3 140 34 c175 42 1635 427 1639 432
2 2 7 47 11 100 l7 96 -114 6 c-62 4 -435 7 -828 8 -393 0 -825 4 -960 8 -265
8 -291 13 -326 66 -14 21 -24 25 -69 25 -51 0 -53 -1 -59 -31z"/>
<path d="M8652 19107 l-34 -35 71 -21 c39 -12 83 -32 98 -46 27 -23 27 -25 13
-52 -9 -15 -51 -54 -93 -86 -43 -32 -83 -69 -89 -82 -33 -73 46 -124 296 -190
l91 -25 31 37 31 37 -73 23 c-86 28 -120 60 -102 98 6 13 46 49 89 80 83 59
99 78 99 118 0 47 -82 95 -241 141 -147 42 -149 42 -187 3z"/>
<path d="M9250 18048 c0 -84 -3 -163 -6 -175 -6 -22 -4 -23 51 -23 50 0 60 4
84 29 50 53 51 53 901 48 870 -5 927 -9 1045 -66 70 -35 95 -70 95 -133 0 -88
-63 -139 -211 -174 -65 -15 -147 -18 -654 -21 -319 -2 -699 0 -845 5 -286 9
-311 14 -346 67 -14 21 -24 25 -69 25 l-52 0 -6 -82 c-4 -46 -7 -143 -7 -215
l0 -133 54 0 c45 0 56 4 69 24 9 12 33 32 54 42 36 18 67 19 778 15 776 -3
900 1 1065 40 108 25 220 79 272 131 22 22 52 65 67 97 23 49 26 69 26 156 0
81 -4 109 -22 147 -57 125 -211 203 -468 238 -47 7 -396 15 -855 20 -843 8
-842 8 -883 65 -16 22 -26 25 -78 25 l-59 0 0 -152z"/>
<path d="M11433 17095 c-42 -42 -160 -80 -423 -135 -279 -59 -421 -110 -475
-170 -26 -29 -45 -25 -90 21 -81 83 -161 126 -305 162 -74 19 -112 22 -300 21
-190 0 -224 -3 -295 -22 -161 -45 -245 -103 -296 -207 -29 -59 -32 -76 -40
-207 -4 -79 -8 -209 -8 -290 l-1 -148 55 0 c43 0 56 4 64 19 18 32 62 53 130
61 104 13 1858 -5 1903 -19 20 -6 48 -25 62 -41 22 -26 31 -30 79 -30 l54 0 6
143 c4 78 7 172 7 210 l0 67 -53 0 c-46 0 -57 -4 -82 -30 -16 -17 -45 -35 -64
-40 -21 -6 -196 -10 -413 -10 l-378 0 0 36 c0 99 33 114 460 204 300 64 415
91 493 116 l47 16 0 62 c0 35 3 104 6 154 l7 92 -59 -1 c-52 -2 -63 -5 -91
-34z m-1426 -345 c171 -13 251 -37 312 -95 l46 -43 3 -81 4 -81 -293 0 c-162
0 -378 3 -481 7 l-188 6 0 66 c0 81 20 119 84 156 58 34 138 55 246 65 125 11
124 11 267 0z"/>
<path d="M9990 15944 c-544 -50 -817 -196 -837 -447 -29 -351 475 -546 1352
-524 486 13 782 84 939 227 99 91 136 215 102 334 -49 169 -195 272 -491 346
-191 49 -336 62 -695 65 -179 1 -345 1 -370 -1z m640 -254 c322 -16 498 -44
614 -100 76 -36 106 -67 113 -117 16 -123 -183 -205 -567 -234 -218 -16 -865
-7 -1015 15 -229 33 -358 79 -402 145 -66 98 13 185 211 236 206 52 630 75
1046 55z"/>
<path d="M9188 14773 c-44 -82 -62 -152 -62 -243 -1 -74 3 -93 27 -142 99
-201 422 -330 927 -369 187 -14 615 -6 775 15 362 48 563 143 642 305 26 51
28 65 27 171 0 105 -3 122 -33 203 l-33 87 -264 0 -265 0 3 -52 3 -52 90 -13
c212 -30 305 -84 305 -176 0 -144 -215 -215 -714 -237 -372 -16 -809 10 -1016
61 -191 48 -292 126 -276 213 13 70 98 117 257 142 57 9 110 18 117 20 7 2 12
22 12 54 l0 50 -212 0 c-117 0 -229 3 -248 6 -34 6 -37 4 -62 -43z"/>
<path d="M11352 13519 c-19 -30 -86 -56 -188 -74 -49 -8 -532 -73 -1073 -145
-541 -71 -985 -131 -986 -132 -2 -2 -5 -50 -7 -108 l-3 -105 690 -127 c1531
-282 1461 -267 1523 -325 30 -29 41 -33 88 -33 l54 0 0 133 c0 72 3 149 6 170
l7 37 -61 0 c-52 0 -62 -3 -67 -20 -4 -11 -21 -28 -38 -38 -49 -26 -254 -23
-430 7 l-137 24 2 176 3 176 135 17 c197 24 310 31 371 23 45 -6 60 -14 91
-46 32 -34 43 -39 82 -39 43 0 45 1 50 33 3 17 7 119 9 225 l3 192 -55 0 c-46
0 -59 -4 -69 -21z m-820 -554 c-2 -107 -6 -145 -15 -145 -7 0 -219 36 -471 80
-252 44 -463 80 -469 81 -39 2 65 18 457 69 243 32 455 58 471 59 l30 1 -3
-145z"/>
</g>
</svg>
